<?xml version="1.0" standalone="no"?>
<!DOCTYPE svg PUBLIC "-//W3C//DTD SVG 20010904//EN"
 "http://www.w3.org/TR/2001/REC-SVG-20010904/DTD/svg10.dtd">
<svg version="1.0" xmlns="http://www.w3.org/2000/svg"
 width="434.000000pt" height="831.000000pt" viewBox="0 0 434.000000 831.000000"
 preserveAspectRatio="xMidYMid meet">

<g transform="translate(0.000000,831.000000) scale(0.100000,-0.100000)"
fill="#000000" stroke="none">
<path d="M2022 8047 c-21 -22 -22 -31 -22 -244 l0 -222 26 -20 c22 -18 41 -21
115 -21 78 0 91 3 116 24 l28 24 0 215 c0 214 0 216 -24 241 -23 24 -30 26
-121 26 -88 0 -98 -2 -118 -23z"/>
<path d="M735 7546 c-51 -22 -85 -71 -85 -122 0 -25 6 -57 14 -72 8 -15 63
-75 124 -134 84 -82 117 -108 145 -113 123 -23 213 90 161 201 -19 40 -219
229 -258 244 -36 13 -64 12 -101 -4z"/>
<path d="M3431 7543 c-28 -6 -236 -204 -258 -247 -34 -66 -9 -148 57 -185 79
-44 122 -26 267 115 117 115 132 140 119 209 -16 82 -90 126 -185 108z"/>
<path d="M2002 6979 c-431 -56 -782 -368 -893 -795 -33 -125 -33 -348 -1 -477
77 -311 281 -561 569 -699 704 -338 1523 166 1523 937 0 627 -567 1116 -1198
1034z"/>
<path d="M313 6220 c-34 -14 -43 -42 -43 -138 0 -74 3 -94 19 -113 19 -24 20
-24 244 -24 281 0 267 -7 267 140 0 146 12 139 -254 142 -116 1 -221 -2 -233
-7z"/>
<path d="M3523 6220 c-34 -14 -43 -42 -43 -138 0 -74 3 -94 19 -113 19 -24 20
-24 244 -24 281 0 267 -7 267 140 0 146 12 139 -254 142 -116 1 -221 -2 -233
-7z"/>
<path d="M290 3411 c0 -1522 -1 -1500 59 -1734 206 -797 952 -1367 1791 -1367
866 0 1630 608 1808 1440 41 188 42 245 42 1670 l0 1380 -662 0 -663 0 -262
-262 -263 -263 -263 263 -262 262 -663 0 -662 0 0 -1389z m2165 -356 c168
-638 310 -1174 314 -1191 9 -31 4 -36 -308 -348 l-317 -317 -320 315 -321 315
314 1188 c172 653 316 1195 319 1203 4 8 8 11 10 5 2 -5 141 -532 309 -1170z"/>
</g>
</svg>
